<svg xmlns="http://www.w3.org/2000/svg" viewBox="0 0 435 181" version="1.1" role="img" aria-labelledby="clove-logo-title"><title id="clove-logo-title">Clove Collective</title><defs><linearGradient id="logoGradient" x1="0" y1="0" x2="1" y2="0"><stop offset="0" stop-color="#00879a"/><stop offset="0.58" stop-color="#2f8058"/><stop offset="1" stop-color="#8d9474"/></linearGradient></defs>
	<path d="M 103.012 3.680 C 96.694 5.584, 91.342 7.325, 91.120 7.547 C 90.144 8.522, 93.364 10.846, 96.507 11.435 C 103.224 12.695, 103 10.688, 103 69.600 C 103 127.595, 102.986 127.748, 97.298 131.604 C 95.759 132.647, 93.375 133.729, 92 134.010 C 90.625 134.290, 89.500 135.190, 89.500 136.010 C 89.500 137.274, 92.663 137.541, 110.327 137.771 C 129.601 138.021, 131.130 137.912, 130.822 136.314 C 130.639 135.365, 129.592 134.343, 128.495 134.044 C 125.185 133.142, 121.392 130.136, 119.904 127.236 C 118.752 124.992, 118.449 113.307, 118.214 62.250 C 117.947 4.189, 117.813 0.007, 116.214 0.109 C 115.271 0.168, 109.330 1.775, 103.012 3.680 M 43.917 45.396 C 43.688 45.613, 41.925 46.014, 40 46.286 C 30.297 47.657, 17.553 54.899, 11.033 62.747 C 5.401 69.526, 1.730 78.339, 1.009 86.813 C -0.536 104.954, 3.142 117.313, 13.341 128.250 C 16.291 131.412, 19.038 134, 19.447 134 C 19.857 134, 21.386 134.843, 22.846 135.874 C 24.306 136.905, 28.821 138.499, 32.880 139.416 C 44.798 142.108, 62.939 139.921, 69.500 135 C 70.600 134.175, 74.763 130.270, 78.750 126.323 C 86.170 118.978, 87.939 114.958, 84.355 113.583 C 82.679 112.939, 79 115.488, 79 117.293 C 79 118.850, 69.676 126.954, 67.857 126.978 C 66.953 126.990, 65.975 127.622, 65.684 128.382 C 64.253 132.109, 44.641 133.058, 38.444 129.699 C 36.825 128.822, 34.554 127.667, 33.397 127.133 C 29.661 125.407, 24.395 118.200, 21.433 110.758 C 19.321 105.451, 18.446 101.344, 18.179 95.480 C 17.338 77.021, 23.185 62.888, 34.964 54.907 C 39.818 51.617, 49.677 50.627, 57.181 52.675 C 63.279 54.339, 65.455 56.155, 70.371 63.686 C 72.832 67.456, 74.162 68.557, 76.507 68.762 C 78.992 68.979, 79.967 68.358, 82.250 65.102 C 85.182 60.922, 85.735 56.550, 83.675 53.842 C 81.529 51.020, 74.238 47.813, 66.704 46.376 C 60.095 45.116, 44.900 44.462, 43.917 45.396 M 176 46.077 C 166.911 47.664, 156.635 53.177, 149.599 60.240 C 139.334 70.543, 135.212 82.008, 136.344 97.097 C 136.657 101.276, 137.831 107.145, 138.951 110.140 C 143.365 121.936, 156.596 133.942, 169.615 137.963 C 174.522 139.478, 178.970 140, 186.986 140 C 196.087 140, 198.811 139.605, 204.508 137.461 C 215.313 133.394, 223.619 126.819, 229.864 117.391 C 234.460 110.452, 236.244 103.357, 236.134 92.448 C 235.991 78.298, 232.521 69.807, 222.985 60.271 C 213.642 50.928, 203.444 46.430, 189.744 45.610 C 185.210 45.339, 179.025 45.549, 176 46.077 M 378 47.832 C 363.525 52.596, 351.387 65.684, 348.060 80.115 C 347.504 82.527, 347.038 88.677, 347.024 93.782 C 346.984 108.989, 351.881 120.277, 362.701 129.921 C 369.699 136.159, 377.198 139.124, 387.540 139.746 C 401.877 140.607, 413.975 136.425, 423.601 127.279 C 428.486 122.638, 433.095 115.837, 434.464 111.250 C 435.580 107.507, 431.670 108.371, 429.807 112.279 C 426.349 119.530, 418.182 126.590, 409.761 129.608 C 403.941 131.694, 391.509 131.662, 385.134 129.545 C 377.957 127.161, 369.256 118.464, 366.060 110.480 C 364.155 105.721, 363.577 102.100, 363.228 92.750 L 362.789 81 395.745 81 C 429.876 81, 435 80.483, 435 77.037 C 435 76.064, 433.382 72.035, 431.405 68.082 C 427.276 59.829, 421.517 54.613, 411 49.599 C 405.178 46.823, 403.405 46.475, 394 46.261 C 386.053 46.080, 382.163 46.462, 378 47.832 M 314.250 47.813 C 309.526 48.269, 309.804 51.450, 314.708 53.069 C 324.688 56.362, 324.388 62.123, 313.019 85.500 C 308.471 94.850, 303.028 106.213, 300.921 110.750 C 298.815 115.287, 296.824 119, 296.498 119 C 296 119, 280 86.474, 280 85.463 C 280 85.278, 277.300 79.481, 274 72.581 C 270.700 65.682, 268.007 59.241, 268.015 58.268 C 268.040 55.435, 269.333 54.126, 273.548 52.667 C 275.722 51.914, 277.500 50.669, 277.500 49.899 C 277.500 48.758, 273.950 48.450, 258.250 48.228 C 241.319 47.990, 239 48.146, 239 49.525 C 239 50.387, 240.394 51.860, 242.098 52.797 C 249.608 56.925, 250.182 57.881, 268.041 96 C 287.655 137.866, 288.789 140, 291.427 140 C 293.969 140, 295.326 137.561, 309.520 107.500 C 311.857 102.550, 316.563 92.650, 319.977 85.500 C 323.390 78.350, 327.127 70.475, 328.280 68 C 329.433 65.525, 333.485 60.416, 337.286 56.648 C 341.086 52.879, 343.814 49.417, 343.348 48.955 C 342.492 48.106, 320.260 47.234, 314.250 47.813 M 385.326 51.151 C 383.031 51.546, 379.835 52.551, 378.225 53.384 C 372.724 56.228, 367.428 63.744, 364.577 72.750 L 363.865 75 390.060 75 L 416.256 75 415.576 70.750 C 415.202 68.412, 413.765 64.569, 412.381 62.208 C 407.062 53.130, 397.211 49.104, 385.326 51.151 M 175.698 52.444 C 161.717 57.431, 154 71.499, 154 92 C 154 106.304, 158.104 117.707, 166.240 126.007 C 169.828 129.667, 171.160 130.448, 173.250 130.118 C 173.662 130.053, 174 130.395, 174 130.879 C 174 132.740, 180.623 134.363, 188.022 134.315 C 194 134.277, 196.786 133.748, 200.327 131.979 C 211.238 126.530, 217.324 114.981, 218.637 97.234 C 219.289 88.438, 217.434 78.724, 213.526 70.463 C 210.971 65.062, 204.421 57.226, 202.083 56.774 C 201.304 56.623, 199.871 55.742, 198.898 54.815 C 195.004 51.104, 182.917 49.869, 175.698 52.444 M 90.500 155.493 C 84.754 158.545, 83.543 162.793, 86.792 168.500 C 88.876 172.161, 89.843 172.512, 97.694 172.455 C 102.319 172.422, 104.417 171.932, 105.976 170.522 C 107.124 169.483, 107.997 167.928, 107.917 167.066 C 107.610 163.792, 108.069 163, 110.278 163 C 111.531 163, 113.311 163.883, 114.235 164.962 C 116.246 167.310, 117.427 175, 115.778 175 C 115.167 175, 114.945 175.279, 115.286 175.619 C 116.480 176.813, 113.112 179, 110.080 179 C 108.100 179, 106.575 178.293, 105.768 177 C 104.118 174.359, 102.781 174.453, 103.180 177.183 C 103.812 181.494, 112.474 181.935, 118.084 177.940 C 120.577 176.165, 121 175.201, 121 171.297 C 121 167.685, 120.466 166.235, 118.448 164.365 C 116.275 162.350, 114.868 162, 108.948 162 C 103.316 162, 101.618 162.382, 99.985 164.015 C 98.512 165.488, 98.148 166.740, 98.631 168.664 C 99.068 170.407, 98.933 171.077, 98.231 170.643 C 97.648 170.282, 96.984 170.548, 96.756 171.232 C 96.426 172.222, 95.772 172.217, 93.561 171.210 C 91.517 170.279, 90.918 169.421, 91.297 167.972 C 91.581 166.887, 91.387 166, 90.866 166 C 90.345 166, 90.027 164.168, 90.159 161.928 C 90.426 157.408, 92.021 156, 96.878 156 C 98.833 156, 100.420 156.761, 101.408 158.173 C 102.788 160.143, 102.992 160.183, 103.598 158.605 C 103.965 157.649, 103.795 156.395, 103.220 155.820 C 101.369 153.969, 93.737 153.773, 90.500 155.493 M 188.232 158.750 C 187.829 158.887, 187.575 162.712, 187.666 167.250 L 187.831 175.500 194.666 175.422 C 200.350 175.358, 201.557 175.049, 201.839 173.589 C 202.130 172.087, 201.871 171.999, 200.040 172.979 C 198.864 173.608, 196.686 173.983, 195.201 173.812 C 193.056 173.564, 192.432 172.904, 192.170 170.608 C 191.845 167.762, 191.906 167.724, 195.920 168.262 C 199.392 168.728, 200 168.540, 200 167 C 200 165.466, 199.391 165.272, 196 165.727 C 192.200 166.236, 192 166.130, 192 163.600 C 192 160.155, 194.541 159.200, 198.168 161.282 C 200.846 162.819, 201 162.805, 201 161.042 C 201 159.467, 200.067 159.125, 194.982 158.839 C 191.672 158.652, 188.635 158.612, 188.232 158.750 M 255.337 158.803 C 252.852 158.984, 250.949 159.690, 250.618 160.553 C 249.974 162.231, 251.131 162.469, 252.633 160.967 C 253.201 160.399, 254.438 160.231, 255.382 160.593 C 256.787 161.132, 257.060 162.405, 256.891 167.626 C 256.774 171.249, 256.235 174, 255.642 174 C 254.945 174, 254.959 174.359, 255.685 175.085 C 256.281 175.681, 257.780 176.019, 259.016 175.835 C 261.128 175.520, 261.258 175.037, 261.206 167.750 C 261.146 159.569, 261.798 158.610, 265.287 161.750 C 267.150 163.426, 267.217 163.416, 266.855 161.515 C 266.431 159.279, 262.266 158.299, 255.337 158.803 M 305.250 158.780 C 303.215 159.105, 301.940 161, 303.757 161 C 304.173 161, 305.102 162.912, 305.822 165.250 C 307.192 169.697, 310.957 175.981, 312.258 175.993 C 312.675 175.997, 313.775 174.103, 314.703 171.785 C 315.630 169.467, 317.365 165.642, 318.558 163.285 L 320.728 159 318.003 159 C 315.715 159, 315.346 159.361, 315.708 161.253 C 316.282 164.256, 314.306 169.264, 312.744 168.765 C 312.060 168.547, 310.792 166.265, 309.927 163.694 C 309.062 161.123, 308.162 158.885, 307.927 158.720 C 307.692 158.555, 306.488 158.582, 305.250 158.780 M 337.244 158.750 C 336.835 158.887, 336.574 162.712, 336.664 167.250 L 336.828 175.500 343.402 175.500 C 348.099 175.500, 350.129 175.102, 350.512 174.107 C 351.256 172.171, 350.210 171.390, 348.783 172.817 C 348.132 173.468, 346.392 174, 344.917 174 C 342.979 174, 342.066 173.375, 341.630 171.750 C 340.626 168.003, 340.865 167.716, 344.500 168.306 C 347.786 168.840, 348 168.707, 348 166.137 C 348 164.632, 348.540 162.860, 349.200 162.200 C 351.063 160.337, 349.085 159.222, 343.244 158.842 C 340.353 158.654, 337.653 158.612, 337.244 158.750 M 129.666 167.250 L 129.832 175.500 136.166 175.411 C 141.350 175.337, 142.562 175.005, 142.839 173.578 C 143.124 172.115, 142.852 172.009, 141.155 172.917 C 140.042 173.513, 137.940 174, 136.483 174 C 133.857 174, 133.838 173.946, 134.228 167.711 C 134.444 164.252, 134.958 160.877, 135.370 160.211 C 135.898 159.356, 135.145 159, 132.809 159 L 129.500 158.999 129.666 167.250 M 159.575 165.736 C 159.728 169.441, 159.412 173.003, 158.874 173.652 C 157.592 175.197, 160.014 175.817, 166.354 175.569 C 169.729 175.437, 171.496 174.865, 172.154 173.690 C 173.175 171.864, 171.606 171.210, 170.500 173 C 169.502 174.615, 164.281 174.175, 163.607 172.418 C 162.690 170.027, 162.879 164.449, 163.975 161.565 C 164.880 159.187, 164.745 159, 162.123 159 L 159.296 159 159.575 165.736 M 220.862 160.894 C 219.537 161.936, 218.358 163.941, 218.242 165.349 C 218.125 166.758, 217.970 168.268, 217.896 168.705 C 217.195 172.885, 222.144 175.389, 229.991 174.823 C 233.440 174.575, 234.565 174.065, 234.839 172.625 C 235.174 170.859, 235.060 170.844, 232.875 172.375 C 229.946 174.427, 225.607 174.464, 223.597 172.454 C 222.456 171.313, 222.196 169.682, 222.604 166.215 C 222.907 163.634, 223.683 161.186, 224.328 160.776 C 226.216 159.575, 229.468 159.886, 231.559 161.468 C 234.019 163.329, 235 163.369, 235 161.607 C 235 159.773, 232.791 159, 227.553 159 C 224.864 159, 222.374 159.705, 220.862 160.894 M 282.426 167.501 C 282.357 175.529, 282.471 176, 284.482 176 C 286.482 176, 286.616 175.483, 286.685 167.500 C 286.755 159.471, 286.641 159, 284.630 159.001 C 282.630 159.002, 282.496 159.520, 282.426 167.501 M 341 163 C 341 165.640, 341.346 166, 343.883 166 C 346.019 166, 346.917 165.426, 347.346 163.786 C 347.995 161.302, 346.623 160.038, 343.250 160.015 C 341.413 160.003, 341 160.551, 341 163" stroke="none" fill="url(#logoGradient)" fill-rule="evenodd"/>
</svg>